HIERARCHY
ROOT hips
{
  OFFSET 0 10.6860622 2.3727825e-15
  CHANNELS 6 Xposition Yposition Zposition Yrotation Xrotation Zrotation
  JOINT leftUpperLeg
  {
    OFFSET 0.6642549969 -0.9402397400000004 0
    CHANNELS 3 Yrotation Xrotation Zrotation
    JOINT leftLowerLeg
    {
      OFFSET 0 -3.997221335632195 0
      CHANNELS 3 Yrotation Xrotation Zrotation
      JOINT leftFoot
      {
        OFFSET -0.13777839790000004 -4.6145792000000005 -0.22186036399999998
        CHANNELS 3 Yrotation Xrotation Zrotation
        JOINT leftToes
        {
          OFFSET -0.03777410834999995 -0.9130806927000008 0.85230013
          CHANNELS 3 Yrotation Xrotation Zrotation
          End Site
          {
            OFFSET -0.03777410834999995 -0.9130806927000008 0.85230013
          }
        }
      }
    }
  }
  JOINT rightUpperLeg
  {
    OFFSET -0.6642778626 -0.9402397400000004 0
    CHANNELS 3 Yrotation Xrotation Zrotation
    JOINT rightLowerLeg
    {
      OFFSET 0 -3.997221452859387 0
      CHANNELS 3 Yrotation Xrotation Zrotation
      JOINT rightFoot
      {
        OFFSET 0.1377926176 -4.6145792000000005 -0.22185782299999995
        CHANNELS 3 Yrotation Xrotation Zrotation
        JOINT rightToes
        {
          OFFSET 0.037780746850000047 -0.9130806927000008 0.85230167
          CHANNELS 3 Yrotation Xrotation Zrotation
          End Site
          {
            OFFSET 0.037780746850000047 -0.9130806927000008 0.85230167
          }
        }
      }
    }
  }
  JOINT spine
  {
    OFFSET 0 0.13988381660000015 0
    CHANNELS 3 Yrotation Xrotation Zrotation
    JOINT chest
    {
      OFFSET 0 0.6191039003973773 0
      CHANNELS 3 Yrotation Xrotation Zrotation
      JOINT upperChest
      {
        OFFSET 0 0.9855186130586943 0
        CHANNELS 3 Yrotation Xrotation Zrotation
        JOINT leftShoulder
        {
          OFFSET 0.1807663869 1.5087829790000005 0
          CHANNELS 3 Yrotation Xrotation Zrotation
          JOINT leftUpperArm
          {
            OFFSET 0.5985063006419806 0 0
            CHANNELS 3 Yrotation Xrotation Zrotation
            JOINT leftLowerArm
            {
              OFFSET 2.2993332369501065 0 0
              CHANNELS 3 Yrotation Xrotation Zrotation
              JOINT leftHand
              {
                OFFSET 2.395047042602395 0 0
                CHANNELS 3 Yrotation Xrotation Zrotation
                JOINT leftIndexProximal
                {
                  OFFSET 0.5766295810000004 0.04556643899499946 0.17265095988184
                  CHANNELS 3 Yrotation Xrotation Zrotation
                  JOINT leftIndexIntermediate
                  {
                    OFFSET 0.2957229000000008 -0.019352197700001517 -0.007932640616999987
                    CHANNELS 3 Yrotation Xrotation Zrotation
                    JOINT leftIndexDistal
                    {
                      OFFSET 0.19008243099999922 -0.012484908149998475 -0.002786250786000012
                      CHANNELS 3 Yrotation Xrotation Zrotation
                      End Site
                      {
                        OFFSET 0.19008243099999922 -0.012484908149998475 -0.002786250786000012
                      }
                    }
                  }
                }
                JOINT leftMiddleProximal
                {
                  OFFSET 0.5834975091000001 0.0524350405149987 0.02204081888183999
                  CHANNELS 3 Yrotation Xrotation Zrotation
                  JOINT leftMiddleIntermediate
                  {
                    OFFSET 0.33880573540000003 -0.019871473270000717 -0.00000971183179999946
                    CHANNELS 3 Yrotation Xrotation Zrotation
                    JOINT leftMiddleDistal
                    {
                      OFFSET 0.20676022730000088 -0.012221336379999448 0.0001471936708000235
                      CHANNELS 3 Yrotation Xrotation Zrotation
                      End Site
                      {
                        OFFSET 0.20676022730000088 -0.012221336379999448 0.0001471936708000235
                      }
                    }
                  }
                }
                JOINT leftLittleProximal
                {
                  OFFSET 0.5344154683999995 -0.012880921405001189 -0.24414037221816004
                  CHANNELS 3 Yrotation Xrotation Zrotation
                  JOINT leftLittleIntermediate
                  {
                    OFFSET 0.21758961730000093 -0.011650919939999227 0.011893592810000034
                    CHANNELS 3 Yrotation Xrotation Zrotation
                    JOINT leftLittleDistal
                    {
                      OFFSET 0.1475273964999999 -0.008152365682999818 0.006001092492999946
                      CHANNELS 3 Yrotation Xrotation Zrotation
                      End Site
                      {
                        OFFSET 0.1475273964999999 -0.008152365682999818 0.006001092492999946
                      }
                    }
                  }
                }
                JOINT leftRingProximal
                {
                  OFFSET 0.5799399463000003 0.026911854694997794 -0.12150566991816003
                  CHANNELS 3 Yrotation Xrotation Zrotation
                  JOINT leftRingIntermediate
                  {
                    OFFSET 0.26167887460000006 -0.013480186499999602 0.010996293000000053
                    CHANNELS 3 Yrotation Xrotation Zrotation
                    JOINT leftRingDistal
                    {
                      OFFSET 0.17667108799999987 -0.008990287899999228 0.0055541023999999065
                      CHANNELS 3 Yrotation Xrotation Zrotation
                      End Site
                      {
                        OFFSET 0.17667108799999987 -0.008990287899999228 0.0055541023999999065
                      }
                    }
                  }
                }
                JOINT leftThumbProximal
                {
                  OFFSET 0.11018806699999972 -0.09448718900500053 0.17047963138184
                  CHANNELS 3 Yrotation Xrotation Zrotation
                  JOINT leftThumbIntermediate
                  {
                    OFFSET 0.31062601459999983 -0.08126270900000132 0.15443142000000007
                    CHANNELS 3 Yrotation Xrotation Zrotation
                    JOINT leftThumbDistal
                    {
                      OFFSET 0.21627175790000086 -0.08833193599999878 0.018771167799999988
                      CHANNELS 3 Yrotation Xrotation Zrotation
                      End Site
                      {
                        OFFSET 0.21627175790000086 -0.08833193599999878 0.018771167799999988
                      }
                    }
                  }
                }
              }
            }
          }
        }
        JOINT neck
        {
          OFFSET 0 1.5463305265074576 0
          CHANNELS 3 Yrotation Xrotation Zrotation
          JOINT head
          {
            OFFSET 0 0.8456443600000344 0
            CHANNELS 3 Yrotation Xrotation Zrotation
            JOINT leftEye
            {
              OFFSET 0.30408573140000006 0.5104519199999995 0.1276382305
              CHANNELS 3 Yrotation Xrotation Zrotation
              End Site
              {
                OFFSET 0.30408573140000006 0.5104519199999995 0.1276382305
              }
            }
            JOINT rightEye
            {
              OFFSET -0.30409491089999996 0.5104519199999995 0.1276379445
              CHANNELS 3 Yrotation Xrotation Zrotation
              End Site
              {
                OFFSET -0.30409491089999996 0.5104519199999995 0.1276379445
              }
            }
            JOINT jaw
            {
              OFFSET -3.155239131000001e-7 -0.11984121820000082 0.60178107
              CHANNELS 3 Yrotation Xrotation Zrotation
              End Site
              {
                OFFSET -3.155239131000001e-7 -0.11984121820000082 0.60178107
              }
            }
          }
        }
        JOINT rightShoulder
        {
          OFFSET -0.1807303465 1.5087829790000005 0
          CHANNELS 3 Yrotation Xrotation Zrotation
          JOINT rightUpperArm
          {
            OFFSET -0.5985063796536958 0 0
            CHANNELS 3 Yrotation Xrotation Zrotation
            JOINT rightLowerArm
            {
              OFFSET -2.2993322059002854 0 0
              CHANNELS 3 Yrotation Xrotation Zrotation
              JOINT rightHand
              {
                OFFSET -2.395045314457259 0 0
                CHANNELS 3 Yrotation Xrotation Zrotation
                JOINT rightIndexProximal
                {
                  OFFSET -0.5764487688300002 0.0441371204405987 0.17361932004999997
                  CHANNELS 3 Yrotation Xrotation Zrotation
                  JOINT rightIndexIntermediate
                  {
                    OFFSET -0.29573011380000047 -0.01934826376999843 -0.007698921482999974
                    CHANNELS 3 Yrotation Xrotation Zrotation
                    JOINT rightIndexDistal
                    {
                      OFFSET -0.19008373999999884 -0.012503266380000655 -0.0026365778999999897
                      CHANNELS 3 Yrotation Xrotation Zrotation
                      End Site
                      {
                        OFFSET -0.19008373999999884 -0.012503266380000655 -0.0026365778999999897
                      }
                    }
                  }
                }
                JOINT rightMiddleProximal
                {
                  OFFSET -0.5834852037300005 0.05211639405060153 0.02307162440000001
                  CHANNELS 3 Yrotation Xrotation Zrotation
                  JOINT rightMiddleIntermediate
                  {
                    OFFSET -0.33880114510000003 -0.019952774050000954 0.0002455003561999819
                    CHANNELS 3 Yrotation Xrotation Zrotation
                    JOINT rightMiddleDistal
                    {
                      OFFSET -0.20675694929999955 -0.012273788999999091 0.00030209124000002766
                      CHANNELS 3 Yrotation Xrotation Zrotation
                      End Site
                      {
                        OFFSET -0.20675694929999955 -0.012273788999999091 0.00030209124000002766
                      }
                    }
                  }
                }
                JOINT rightLittleProximal
                {
                  OFFSET -0.5346811737299992 -0.011214256288399227 -0.24363941305000003
                  CHANNELS 3 Yrotation Xrotation Zrotation
                  JOINT rightLittleIntermediate
                  {
                    OFFSET -0.21757715980000092 -0.011771559690000988 0.01201554387
                    CHANNELS 3 Yrotation Xrotation Zrotation
                    JOINT rightLittleDistal
                    {
                      OFFSET -0.1475201849000004 -0.00822055339600003 0.006082065407000015
                      CHANNELS 3 Yrotation Xrotation Zrotation
                      End Site
                      {
                        OFFSET -0.1475201849000004 -0.00822055339600003 0.006082065407000015
                      }
                    }
                  }
                }
                JOINT rightRingProximal
                {
                  OFFSET -0.5800810755299999 0.027657985680600072 -0.12066365025000003
                  CHANNELS 3 Yrotation Xrotation Zrotation
                  JOINT rightRingIntermediate
                  {
                    OFFSET -0.26166445029999974 -0.013623118409999302 0.011164098990000045
                    CHANNELS 3 Yrotation Xrotation Zrotation
                    JOINT rightRingDistal
                    {
                      OFFSET -0.17666387530000027 -0.009072900100000503 0.005668185599999959
                      CHANNELS 3 Yrotation Xrotation Zrotation
                      End Site
                      {
                        OFFSET -0.17666387530000027 -0.009072900100000503 0.005668185599999959
                      }
                    }
                  }
                }
                JOINT rightThumbProximal
                {
                  OFFSET -0.10997596379000074 -0.09577489355940072 0.16989765924999997
                  CHANNELS 3 Yrotation Xrotation Zrotation
                  JOINT rightThumbIntermediate
                  {
                    OFFSET -0.31036620999999986 -0.08229339117999834 0.15440884469999996
                    CHANNELS 3 Yrotation Xrotation Zrotation
                    JOINT rightThumbDistal
                    {
                      OFFSET -0.21631306399999906 -0.08825326400000111 0.018656797720000014
                      CHANNELS 3 Yrotation Xrotation Zrotation
                      End Site
                      {
                        OFFSET -0.21631306399999906 -0.08825326400000111 0.018656797720000014
                      }
                    }
                  }
                }
              }
            }
          }
        }
      }
    }
  }
}
MOTION
Frames: 9
Frame Time: 0.03333333333333333
0 11.682712981546562 0 0 0 0 0 0 -5.826343164929014 -0.3712483961610101 -3.6333298826370974 5.838118207697276 0 0 0 0 0 0 0 0 5.826343164929014 0.3712483961610101 -3.6333298826370974 -5.838118207697276 0 0 0 0 0 0 0 -4.610651315171937 0 0 3.0831277533083026 0 0 0 0 0 1.5275236235667615 0 0 0 0 0 0 0 0 0 0 0 0 0 0 0 0 0 0 0 0 0 0 0 0 0 0 0 0 0 0 0 0 0 0 0 0 0 0 0 0 0 0 0 0 0 0 0 0 0 0 0 0 0 0 0 0 1.5275236235667615 0 0 0 0 0 0 0 0 0 0 0 0 0 0 1.5275236235667615 0 0 0 0 0 0 0 0 0 0 0 0 0 0 0 0 0 0 0 0 0 0 0 0 0 0 0 0 0 0 0 0 0 0 0 0 0 0 0 0 0 0 0 0 0 0 0 0 0 0 0 0 0 0 0
0.3651992164280082 -10.540806929771385 2.6660373204932015 90.02228020387805 -86.0001201900339 -0.024169220405839353 -0.0018679888998437474 -26.152029405089312 5.149954815766664 7.890004315110993 53.164273718819494 7.8226847441819345 0.9456856081440901 8.883705176976784 2.801012603564475 0 0 0 -0.0003255391365361944 -8.199736293016876 -18.640482914394347 -1.2134804715954621 11.809935708449826 -3.6075582031920983 -0.08589035431459477 27.97963849473001 -2.2181790068845793 0 0 0 -0.5184457687423967 -4.961881147184262 -0.7230958098331407 -0.4340663906510666 2.638246879182772 -0.6577545655102413 0 0 0 0.27253154991607 1.5167820287287515 -8.002443425755828 -3.6898151354539124 1.5613327492514026 22.945070816424526 -67.72641305082773 -43.961469473365455 -21.41300879452217 5.681906410451994 -16.050437402001904 -19.804308295159977 0 0 0 0 0 0 0 0 0 0 0 0 0 0 0 0 0 0 0 0 0 0 0 0 0 0 0 0 0 0 0 0 0 0 0 0 0 0 0 0 0 0 0 0 0 0 1.5275236235667615 0 17.998348728243002 0 0 0 0 0 0 0 0 0 0 0 -0.029243402907338244 1.3350069881234694 7.998422164999694 18.84507558373436 2.1147346460460383 71.43442827731462 115.80074370358211 -0.236584231158328 -9.993401155777597 0 0 7.136973880714723 0 0 0 0 0 0 0 0 0 0 0 0 0 0 0 0 0 0 0 0 0 0 0 0 0 0 0 0 0 0 0 0 0 0 0 0 0 0 0 0 0 0 0 0 0
0.3651992164280082 -10.540806929771385 2.6660373204932015 90.02228020387805 -86.0001201900339 -0.024169220405839353 -0.0018679888998437474 -26.152029405089312 5.149954815766664 7.890005097059668 53.16427941517495 7.822685519500463 0.9456856081440901 8.883705176976784 2.801012603564475 0 0 0 -0.0003310566393808356 -8.19964313308945 -18.640491048680758 -1.2134578578042834 11.80975341092715 -3.6075544825765022 -0.08589035431459477 27.97963849473001 -2.2181790068845793 0 0 0 -0.5184457687423967 -4.961881147184262 -0.7230958098331407 -0.4340663906510666 2.638246879182772 -0.6577545655102413 0 0 0 0.27253154991607 1.5167820287287515 -8.002443425755828 -3.6898151354539124 1.5613327492514026 22.945070816424526 -67.72641305082773 -43.961469473365455 -21.41300879452217 5.681906410451994 -16.050437402001904 -19.804308295159977 0 0 0 0 0 0 0 0 0 0 0 0 0 0 0 0 0 0 0 0 0 0 0 0 0 0 0 0 0 0 0 0 0 0 0 0 0 0 0 0 0 0 0 0 0 0 1.5275236235667615 0 17.99849565297833 0.21903153337794554 0.07115689071532837 0 0 0 0 0 0 0 0 0 -0.029243402907338244 1.3350069881234694 7.998422164999694 18.84507558373436 2.1147346460460383 71.43442827731462 115.53710347382383 -0.24421055134503705 -10.03682126917951 0 0 7.136691769726342 0 0 0 0 0 0 0 0 0 0 0 0 0 0 0 0 0 0 0 0 0 0 0 0 0 0 0 0 0 0 0 0 0 0 0 0 0 0 0 0 0 0 0 0 0
0.3651992164280082 -10.540806929771385 2.6660373204932015 90.02228020387805 -86.0001201900339 -0.024169220405839353 -0.0018690825070074336 -26.15203130737831 5.149956578233217 7.890004315110993 53.164273718819494 7.8226847441819345 0.9456856081440901 8.883706041116806 2.801012603564475 0 0 0 -0.0003356545762873593 -8.199552560958713 -18.640494278908683 -1.2134352791632108 11.809570241289672 -3.6075496738312487 -0.08589035431459477 27.97964042828172 -2.218179156560269 0 0 0 -0.5184457687423967 -4.961881147184262 -0.7230958098331407 -0.4340663906510666 2.638246879182772 -0.6577545655102413 0 0 0 0.27253154991607 1.5167820287287515 -8.002444271511902 -3.6898151354539124 1.5613327492514026 22.945070816424526 -67.72641305082773 -43.961469473365455 -21.41300879452217 5.681906410451994 -16.050437402001904 -19.804308295159977 0 0 0 0 0 0 0 0 0 0 0 0 0 0 0 0 0 0 0 0 0 0 0 0 0 0 0 0 0 0 0 0 0 0 0 0 0 0 0 0 0 0 0 0 0 0 1.5275236235667615 0 17.998914841119166 0.43818158393108847 0.14235455962456328 0 0 0 0 0 0 0 0 0 -0.02924340624329659 1.3350069881234694 7.998423010697295 18.84507558373436 2.1147337916905222 71.43442827731462 115.27288966369026 -0.25205419003279417 -10.080309455697156 0 0 7.136412200207938 0 0 0 0 0 0 0 0 0 0 0 0 0 0 0 0 0 0 0 0 0 0 0 0 0 0 0 0 0 0 0 0 0 0 0 0 0 0 0 0 0 0 0 0 0
0.3651992164280082 -10.540806929771385 2.6660373204932015 90.02151848286285 -86.00007123147871 -0.023412654638459676 -0.0018690825070074336 -26.152029405089312 5.1499552894191 7.890004315110993 53.164273718819494 7.8226847441819345 0.9456856081440901 8.883705176976784 2.801012603564475 0 0 0 -0.000341172100693716 -8.199458538482915 -18.640498040982326 -1.2134114663783944 11.809387071774626 -3.6075457355995195 -0.08589035431459477 27.979636561178342 -2.2181790068845793 0 0 0 -0.5184458758611683 -4.961881147184262 -0.7230948458015521 -0.4340663906510666 2.638246879182772 -0.6577545655102413 0 0 0 0.27253154991607 1.5167820287287515 -8.002442104399648 -3.6898151354539124 1.5613326424900598 22.94506791153225 -67.72642103785871 -43.96146472890552 -21.41300091326676 5.681906410451994 -16.050437402001904 -19.804308295159977 0 0 0 0 0 0 0 0 0 0 0 0 0 0 0 0 0 0 0 0 0 0 0 0 0 0 0 0 0 0 0 0 0 0 0 0 0 0 0 0 0 0 0 0 0 0 1.5275236235667615 0 17.999607953064835 0.6574472421700893 0.21359325001058604 0 0 0 0 0 0 0 0 0 -0.029243402907338244 1.3350069881234694 7.998422164999694 18.84507558373436 2.1147346460460383 71.43442827731462 115.00806286375328 -0.2601179759096377 -10.123860105199448 0 0 7.136129242043199 0 0 0 0 0 0 0 0 0 0 0 0 0 0 0 0 0 0 0 0 0 0 0 0 0 0 0 0 0 0 0 0 0 0 0 0 0 0 0 0 0 0 0 0 0
0.3651992164280082 -10.540806929771385 2.6660373204932015 90.02228020387805 -86.0001201900339 -0.024169220405839353 -0.0018679888998437474 -26.152029405089312 5.149954815766664 7.890002827858759 53.16426802246479 7.82268396886356 0.9456856081440901 8.883703448696746 2.8010115246799705 0 0 0 -0.0003466895961177388 -8.19936624121178 -18.64050454057526 -1.2133890706889516 11.809205646851845 -3.607541797373044 -0.08589035431459477 27.97963849473001 -2.2181790068845793 0 0 0 -0.5184457687423967 -4.961881147184262 -0.7230958098331407 -0.4340663906510666 2.638246879182772 -0.6577545655102413 0 0 0 0.27253154991607 1.5167820287287515 -8.002442104399648 -3.6898151354539124 1.5613327492514026 22.945070816424526 -67.72641704434346 -43.96146472890552 -21.413004853894222 5.681906410451994 -16.050437402001904 -19.804308295159977 0 0 0 0 0 0 0 0 0 0 0 0 0 0 0 0 0 0 0 0 0 0 0 0 0 0 0 0 0 0 0 0 0 0 0 0 0 0 0 0 0 0 0 0 0 0 1.5275236235667615 0 18.0005679839388 0.8768257684317199 0.28487623339779444 0 0 0 0 0 0 0 0 0 -0.029243402907338244 1.3350069881234694 7.998422164999694 18.84507558373436 2.1147355004015544 71.43442989710421 114.74263999604402 -0.2684018295087621 -10.167473847810244 0 0 7.135847977539261 0 0 0 0 0 0 0 0 0 0 0 0 0 0 0 0 0 0 0 0 0 0 0 0 0 0 0 0 0 0 0 0 0 0 0 0 0 0 0 0 0 0 0 0 0
0.3651992164280082 -10.540806929771385 2.6660373204932015 90.02228020387805 -86.0001201900339 -0.024169220405839353 -0.0018679888998437474 -26.15202750280034 5.1499552894191 7.890004315110993 53.164273718819494 7.8226847441819345 0.9456856081440901 8.883705176976784 2.801012603564475 0 0 0 -0.00035220708888363716 -8.199273943962073 -18.64051104016522 -1.2133663480146184 11.809020733111836 -3.6075380767783125 -0.08589035431459477 27.97963849473001 -2.2181790068845793 0 0 0 -0.5184457687423967 -4.961881147184262 -0.7230958098331407 -0.4340663906510666 2.638246879182772 -0.6577545655102413 0 0 0 0.27253154991607 1.5167820287287515 -8.002443425755828 -3.6898151354539124 1.5613327492514026 22.945070816424526 -67.72641305082773 -43.961469473365455 -21.41300879452217 5.681906410451994 -16.050437402001904 -19.804308295159977 0 0 0 0 0 0 0 0 0 0 0 0 0 0 0 0 0 0 0 0 0 0 0 0 0 0 0 0 0 0 0 0 0 0 0 0 0 0 0 0 0 0 0 0 0 0 1.5275236235667615 0 18.00181069111596 1.096315993452435 0.3562045214448887 0 0 0 0 0 0 0 0 0 -0.029243399571379898 1.3350069881234694 7.998420473604484 18.84507558373436 2.1147346460460383 71.43442827731462 114.47660603401704 -0.2769075924146876 -10.211148432326837 0 0 7.135566713695057 0 0 0 0 0 0 0 0 0 0 0 0 0 0 0 0 0 0 0 0 0 0 0 0 0 0 0 0 0 0 0 0 0 0 0 0 0 0 0 0 0 0 0 0 0
0.3651992164280082 -10.540806929771385 2.6660373204932015 90.02256798692594 -86.00016914918737 -0.02445454371444709 -0.0018679888998437474 -26.152029405089312 5.149954815766664 7.890004315110993 53.164273718819494 7.8226847441819345 0.9456856081440901 8.883705176976784 2.801012603564475 0 0 0 -0.00035680499632888794 -8.199181646733788 -18.6405175397522 -1.213343625370351 11.808837563964085 -3.607533268056805 -0.08589035431459477 27.97963849473001 -2.2181790068845793 0 0 0 -0.5184457687423967 -4.961881147184262 -0.7230958098331407 -0.4340663906510666 2.638246879182772 -0.6577545655102413 0 0 0 0.27253154991607 1.5167820287287515 -8.002443425755828 -3.6898151354539124 1.5613329627740888 22.94507238945303 -67.72641305082773 -43.961469473365455 -21.41300879452217 5.681906410451994 -16.050437402001904 -19.804308295159977 0 0 0 0 0 0 0 0 0 0 0 0 0 0 0 0 0 0 0 0 0 0 0 0 0 0 0 0 0 0 0 0 0 0 0 0 0 0 0 0 0 0 0 0 0 0 1.5275236235667615 0 18.003322134578628 1.3159170509094762 0.42757884712060756 0 0 0 0 0 0 0 0 0 -0.02924340624329659 1.3350069881234694 7.998423010697295 18.84507558373436 2.1147346460460383 71.43442827731462 114.20998690146061 -0.2856351318815768 -10.254880525707962 0 0 7.135285026262214 0 0 0 0 0 0 0 0 0 0 0 0 0 0 0 0 0 0 0 0 0 0 0 0 0 0 0 0 0 0 0 0 0 0 0 0 0 0 0 0 0 0 0 0 0
0.3651992164280082 -10.540806929771385 2.6660373204932015 90.02324042577285 -86.00021810893917 -0.025128602425415612 -0.0018679888998437474 -26.15203130737831 5.14995515727582 7.890004315110993 53.164273718819494 7.8226847441819345 0.9456856081440901 8.883705176976784 2.801012603564475 0 0 0 -0.0003623224840000537 -8.199090212117543 -18.64052240465351 -1.2133211207655503 11.808654394938763 -3.607529547472722 -0.08589035431459477 27.97963849473001 -2.2181790068845793 0 0 0 -0.5184457687423967 -4.961881147184262 -0.7230958098331407 -0.4340663906510666 2.638246879182772 -0.6577545655102413 0 0 0 0.27253154991607 1.5167820287287515 -8.002444271511902 -3.6898151354539124 1.5613329627740888 22.94507238945303 -67.72641305082773 -43.961469473365455 -21.41300879452217 5.681906410451994 -16.050437402001904 -19.804308295159977 0 0 0 0 0 0 0 0 0 0 0 0 0 0 0 0 0 0 0 0 0 0 0 0 0 0 0 0 0 0 0 0 0 0 0 0 0 0 0 0 0 0 0 0 0 0 1.5275236235667615 0 18.00510837563282 1.53562413364555 0.49900201089540064 0 0 0 0 0 0 0 0 0 -0.02924340624329659 1.3350069881234694 7.998423010697295 18.84507558373436 2.1147346460460383 71.43442827731462 113.94274908486153 -0.29458733013379373 -10.298671607263163 0 0 7.1350041859833055 0 0 0 0 0 0 0 0 0 0 0 0 0 0 0 0 0 0 0 0 0 0 0 0 0 0 0 0 0 0 0 0 0 0 0 0 0 0 0 0 0 0 0 0 0
